<?xml version="1.0" encoding="utf-8"?>
<!-- Generator: Adobe Illustrator 24.1.1, SVG Export Plug-In . SVG Version: 6.00 Build 0)  -->
<svg version="1.1" id="Layer_1" xmlns="http://www.w3.org/2000/svg" xmlns:xlink="http://www.w3.org/1999/xlink" x="0px" y="0px"
	 viewBox="0 0 256 256" style="enable-background:new 0 0 256 256;" xml:space="preserve">
<style type="text/css">
	.st0{fill:none;}
	.st1{fill:none;stroke:#FFFFFF;stroke-width:16;stroke-linecap:round;stroke-linejoin:round;}
</style>
<rect class="st0" width="256" height="256"/>
<path class="st1" d="M84,240c13.2,0.1,23.9-10.6,24-23.8c0-0.1,0-0.1,0-0.2v-48"/>
<path class="st1" d="M172,240c-13.2,0.1-23.9-10.6-24-23.8c0-0.1,0-0.1,0-0.2v-48"/>
<path class="st1" d="M152,168h16c13.2-0.1,23.9,10.6,24,23.8c0,0.1,0,0.1,0,0.2v8c-0.1,13.2,10.6,23.9,23.8,24c0.1,0,0.1,0,0.2,0"/>
<path class="st1" d="M104,168H88c-13.2-0.1-23.9,10.6-24,23.8c0,0.1,0,0.1,0,0.2v8c0.1,13.2-10.6,23.9-23.8,24c-0.1,0-0.1,0-0.2,0"
	/>
<path class="st1" d="M111.8,64C102.2,49.1,85.7,40,68,40c-7.9,13.6-9.1,30-3.5,44.7C59,92.8,56.1,102.3,56,112v8
	c0,26.5,21.5,48,48,48h48c26.5,0,48-21.5,48-48v-8c-0.1-9.7-3-19.2-8.5-27.3c5.6-14.7,4.4-31.1-3.5-44.7c-17.7,0-34.2,9.1-43.8,24
	H111.8z"/>
</svg>
